<?xml version="1.0" encoding="UTF-8" standalone="no"?>
<svg
   xmlns:dc="http://purl.org/dc/elements/1.1/"
   xmlns:cc="http://creativecommons.org/ns#"
   xmlns:rdf="http://www.w3.org/1999/02/22-rdf-syntax-ns#"
   xmlns:svg="http://www.w3.org/2000/svg"
   xmlns="http://www.w3.org/2000/svg"
   xmlns:sodipodi="http://sodipodi.sourceforge.net/DTD/sodipodi-0.dtd"
   xmlns:inkscape="http://www.inkscape.org/namespaces/inkscape"
   version="1.0"
   width="152.59375pt"
   height="34.299419pt"
   viewBox="0 0 152.59375 34.299426"
   preserveAspectRatio="xMidYMid meet"
   id="svg78"
   sodipodi:docname="logo-white-name.svg"
   inkscape:version="0.92.1 r15371">
  <defs
     id="defs82" />
  <sodipodi:namedview
     pagecolor="#ffffff"
     bordercolor="#666666"
     borderopacity="1"
     objecttolerance="10"
     gridtolerance="10"
     guidetolerance="10"
     inkscape:pageopacity="0"
     inkscape:pageshadow="2"
     inkscape:window-width="1920"
     inkscape:window-height="1017"
     id="namedview80"
     showgrid="false"
     fit-margin-top="2.5"
     fit-margin-right="2.5"
     fit-margin-bottom="2.5"
     fit-margin-left="2.5"
     inkscape:zoom="2.36"
     inkscape:cx="101.60998"
     inkscape:cy="12.870463"
     inkscape:window-x="1672"
     inkscape:window-y="-8"
     inkscape:window-maximized="1"
     inkscape:current-layer="layer2" />
  <metadata
     id="metadata2">
Created by potrace 1.10, written by Peter Selinger 2001-2011
<rdf:RDF>
  <cc:Work
     rdf:about="">
    <dc:format>image/svg+xml</dc:format>
    <dc:type
       rdf:resource="http://purl.org/dc/dcmitype/StillImage" />
    <dc:title></dc:title>
  </cc:Work>
</rdf:RDF>
</metadata>
  <g
     inkscape:groupmode="layer"
     id="layer1"
     inkscape:label="Layer 1"
     style="display:none"
     sodipodi:insensitive="true"
     transform="translate(0,-190.00045)">
    <path
       inkscape:connector-curvature="0"
       style="opacity:1;fill:#fbfbfb;fill-opacity:1;stroke:none;stroke-width:5.11972141;stroke-linecap:round;stroke-miterlimit:4;stroke-dasharray:none;stroke-opacity:1"
       d="M 97.901991,3.865936 A 13.263283,13.263283 0 0 0 84.637831,17.130097 13.263283,13.263283 0 0 0 97.901991,30.392793 13.263283,13.263283 0 0 0 111.16469,17.130097 13.263283,13.263283 0 0 0 97.901991,3.865936 Z m -0.86572,41.904787 a 30.563217,54.01424 0 0 0 -30.5625,54.014653 30.563217,54.01424 0 0 0 10.88525,41.327644 h -17.00244 a 31.139882,63.240876 0 0 1 -1.09717,-2.92969 31.139882,63.240876 0 0 1 -1.62744,-5.3877 31.139882,63.240876 0 0 1 -1.35351,-5.69238 31.139882,63.240876 0 0 1 -1.06787,-5.93847 31.139882,63.240876 0 0 1 -0.76905,-6.12598 31.139882,63.240876 0 0 1 -0.46582,-6.24902 31.139882,63.240876 0 0 1 -0.15527,-6.31495 31.139882,63.240876 0 0 1 0.0776,-4.472167 31.139882,63.240876 0 0 1 0.375,-6.275392 31.139882,63.240876 0 0 1 0.68262,-6.168458 31.139882,63.240876 0 0 1 0.98144,-6.000001 31.139882,63.240876 0 0 1 1.27149,-5.76856 31.139882,63.240876 0 0 1 1.54833,-5.482906 31.139882,63.240876 0 0 1 1.81055,-5.143067 31.139882,63.240876 0 0 1 1.44873,-3.348633 50.554256,51.899805 0 0 0 -9.54199,-0.972656 50.554256,51.899805 0 0 0 -50.5532301,51.89943 50.554256,51.899805 0 0 0 18.1728501,39.84082 c -0.0823,0.54846 -0.13769,1.10658 -0.13769,1.67871 v 7.68896 c 0,6.17646 4.97246,11.14747 11.14893,11.14747 H 162.96885 c 6.17646,0 11.14892,-4.97101 11.14892,-11.14747 v -7.68896 c 0,-0.47116 -0.0376,-0.9332 -0.0937,-1.38867 a 50.554256,51.899804 0 0 0 18.54639,-40.13086 50.554256,51.899804 0 0 0 -50.55469,-51.89943 50.554256,51.899804 0 0 0 -9.54053,0.972656 31.139882,63.240877 0 0 1 1.44873,3.348633 31.139882,63.240877 0 0 1 1.81055,5.143067 31.139882,63.240877 0 0 1 1.54834,5.482906 31.139882,63.240877 0 0 1 1.27148,5.76856 31.139882,63.240877 0 0 1 0.98145,6.000001 31.139882,63.240877 0 0 1 0.68115,6.168458 31.139882,63.240877 0 0 1 0.37647,6.275392 31.139882,63.240877 0 0 1 0.0776,4.472167 31.139882,63.240877 0 0 1 -0.15528,6.31495 31.139882,63.240877 0 0 1 -0.46582,6.24902 31.139882,63.240877 0 0 1 -0.76904,6.12598 31.139882,63.240877 0 0 1 -1.06788,5.93847 31.139882,63.240877 0 0 1 -1.35351,5.69238 31.139882,63.240877 0 0 1 -1.62891,5.3877 31.139882,63.240877 0 0 1 -1.09716,2.92969 H 116.6681 A 30.563217,54.01424 0 0 0 127.60023,99.785376 30.563217,54.01424 0 0 0 97.036271,45.770723 Z M 31.105121,184.66282 c -6.17647,0 -11.14893,4.97247 -11.14893,11.14893 v 7.68751 c 0,6.17646 4.97246,11.14892 11.14893,11.14892 H 162.96889 c 6.17646,0 11.14892,-4.97246 11.14892,-11.14892 v -7.68751 c 0,-6.17646 -4.97246,-11.14893 -11.14892,-11.14893 z"
       id="path4537" />
  </g>
  <g
     inkscape:groupmode="layer"
     id="layer2"
     inkscape:label="Layer 2"
     transform="translate(0,-190.00045)">
    <path
       inkscape:connector-curvature="0"
       style="display:inline;opacity:1;fill:#808080;fill-opacity:1;stroke:none;stroke-width:0.63813627;stroke-linecap:round;stroke-miterlimit:4;stroke-dasharray:none;stroke-opacity:1"
       d="m 14.449391,194.56026 a 1.6531725,1.6531725 0 0 0 -1.653279,1.65329 1.6531725,1.6531725 0 0 0 1.653279,1.65311 1.6531725,1.6531725 0 0 0 1.653098,-1.65311 1.6531725,1.6531725 0 0 0 -1.653098,-1.65329 z m -0.107904,5.22315 a 3.8094846,6.7324852 0 0 0 -3.809392,6.73253 3.8094846,6.7324852 0 0 0 1.356771,5.15119 H 9.7696282 a 3.8813617,7.8825191 0 0 1 -0.1367523,-0.36516 3.8813617,7.8825191 0 0 1 -0.2028491,-0.67154 3.8813617,7.8825191 0 0 1 -0.1687067,-0.70951 3.8813617,7.8825191 0 0 1 -0.1330998,-0.74018 3.8813617,7.8825191 0 0 1 -0.095852,-0.76357 3.8813617,7.8825191 0 0 1 -0.05806,-0.7789 3.8813617,7.8825191 0 0 1 -0.019345,-0.78711 3.8813617,7.8825191 0 0 1 0.00972,-0.55742 3.8813617,7.8825191 0 0 1 0.046745,-0.78218 3.8813617,7.8825191 0 0 1 0.085079,-0.76886 3.8813617,7.8825191 0 0 1 0.1223302,-0.74786 3.8813617,7.8825191 0 0 1 0.1584821,-0.719 3.8813617,7.8825191 0 0 1 0.1929883,-0.68341 3.8813617,7.8825191 0 0 1 0.2256721,-0.64104 3.8813617,7.8825191 0 0 1 0.1805745,-0.41739 6.3012227,6.468936 0 0 0 -1.1893421,-0.12126 6.3012227,6.468936 0 0 0 -6.3010905,6.46889 6.3012227,6.468936 0 0 0 2.2651115,4.96588 c -0.010207,0.0684 -0.017181,0.13792 -0.017181,0.20923 v 0.95837 c 0,0.76986 0.6197815,1.38945 1.3896343,1.38945 H 22.559552 c 0.76985,0 1.389631,-0.61959 1.389631,-1.38945 v -0.95837 c 0,-0.0588 -0.0047,-0.11634 -0.01168,-0.17309 a 6.3012227,6.468936 0 0 0 2.311677,-5.00202 6.3012227,6.468936 0 0 0 -6.301277,-6.46889 6.3012227,6.468936 0 0 0 -1.18916,0.12126 3.8813617,7.8825191 0 0 1 0.180574,0.41739 3.8813617,7.8825191 0 0 1 0.225672,0.64104 3.8813617,7.8825191 0 0 1 0.192987,0.68341 3.8813617,7.8825191 0 0 1 0.158484,0.719 3.8813617,7.8825191 0 0 1 0.12233,0.74786 3.8813617,7.8825191 0 0 1 0.08491,0.76886 3.8813617,7.8825191 0 0 1 0.04693,0.78218 3.8813617,7.8825191 0 0 1 0.0097,0.55742 3.8813617,7.8825191 0 0 1 -0.01934,0.78711 3.8813617,7.8825191 0 0 1 -0.05806,0.7789 3.8813617,7.8825191 0 0 1 -0.09585,0.76357 3.8813617,7.8825191 0 0 1 -0.133103,0.74018 3.8813617,7.8825191 0 0 1 -0.168707,0.70951 3.8813617,7.8825191 0 0 1 -0.20303,0.67154 3.8813617,7.8825191 0 0 1 -0.136754,0.36516 h -2.17692 a 3.8094846,6.7324852 0 0 0 1.362608,-5.15119 3.8094846,6.7324852 0 0 0 -3.809573,-6.73253 z M 6.1236449,217.0953 c -0.7698491,0 -1.3896307,0.61979 -1.3896307,1.38963 v 0.95819 c 0,0.76986 0.6197816,1.38964 1.3896307,1.38964 H 22.559514 c 0.769854,0 1.389631,-0.61978 1.389631,-1.38964 v -0.95819 c 0,-0.76984 -0.619777,-1.38963 -1.389631,-1.38963 z"
       id="path4537-9" />
    <text
       xml:space="preserve"
       style="font-style:normal;font-weight:normal;font-size:30.45571518px;line-height:1.25;font-family:sans-serif;letter-spacing:0px;word-spacing:0px;fill:#808080;fill-opacity:1;stroke:none;stroke-width:0.76139289"
       x="29.234808"
       y="220.75952"
       id="text4516"><tspan
         sodipodi:role="line"
         id="tspan4514"
         x="29.234808"
         y="220.75952"
         style="font-style:normal;font-variant:normal;font-weight:normal;font-stretch:normal;font-family:Impact;-inkscape-font-specification:Impact;fill:#808080;fill-opacity:1;stroke-width:0.76139289">REYceitas</tspan></text>
  </g>
</svg>
