<?xml version="1.0" encoding="UTF-8" standalone="no"?>
<svg
   xmlns:dc="http://purl.org/dc/elements/1.1/"
   xmlns:cc="http://creativecommons.org/ns#"
   xmlns:rdf="http://www.w3.org/1999/02/22-rdf-syntax-ns#"
   xmlns:svg="http://www.w3.org/2000/svg"
   xmlns="http://www.w3.org/2000/svg"
   xmlns:sodipodi="http://sodipodi.sourceforge.net/DTD/sodipodi-0.dtd"
   xmlns:inkscape="http://www.inkscape.org/namespaces/inkscape"
   version="1.0"
   width="195.59375pt"
   height="224.29942pt"
   viewBox="0 0 195.59375 224.29943"
   preserveAspectRatio="xMidYMid meet"
   id="svg78"
   sodipodi:docname="logo-white.svg"
   inkscape:version="0.92.3 (2405546, 2018-03-11)">
  <defs
     id="defs82" />
  <sodipodi:namedview
     pagecolor="#ffffff"
     bordercolor="#666666"
     borderopacity="1"
     objecttolerance="10"
     gridtolerance="10"
     guidetolerance="10"
     inkscape:pageopacity="0"
     inkscape:pageshadow="2"
     inkscape:window-width="1920"
     inkscape:window-height="1017"
     id="namedview80"
     showgrid="false"
     fit-margin-top="2.5"
     fit-margin-right="2.5"
     fit-margin-bottom="2.5"
     fit-margin-left="2.5"
     inkscape:zoom="1.18"
     inkscape:cx="168.66543"
     inkscape:cy="173.2855"
     inkscape:window-x="-8"
     inkscape:window-y="-8"
     inkscape:window-maximized="1"
     inkscape:current-layer="svg78" />
  <metadata
     id="metadata2">
Created by potrace 1.10, written by Peter Selinger 2001-2011
<rdf:RDF>
  <cc:Work
     rdf:about="">
    <dc:format>image/svg+xml</dc:format>
    <dc:type
       rdf:resource="http://purl.org/dc/dcmitype/StillImage" />
    <dc:title />
  </cc:Work>
</rdf:RDF>
</metadata>
  <path
     style="opacity:1;fill:#fbfbfb;fill-opacity:1;stroke:none;stroke-width:6.8262949;stroke-linecap:round;stroke-miterlimit:4;stroke-dasharray:none;stroke-opacity:1"
     d="M 130.97852 6.9082031 A 17.684377 17.684377 0 0 0 113.29297 24.59375 A 17.684377 17.684377 0 0 0 130.97852 42.277344 A 17.684377 17.684377 0 0 0 148.66211 24.59375 A 17.684377 17.684377 0 0 0 130.97852 6.9082031 z M 129.82422 62.78125 A 40.750954 72.018983 0 0 0 89.074219 134.80078 A 40.750954 72.018983 0 0 0 103.58789 189.9043 L 80.917969 189.9043 A 41.519841 84.321164 0 0 1 79.455078 185.99805 A 41.519841 84.321164 0 0 1 77.285156 178.81445 A 41.519841 84.321164 0 0 1 75.480469 171.22461 A 41.519841 84.321164 0 0 1 74.056641 163.30664 A 41.519841 84.321164 0 0 1 73.03125 155.13867 A 41.519841 84.321164 0 0 1 72.410156 146.80664 A 41.519841 84.321164 0 0 1 72.203125 138.38672 A 41.519841 84.321164 0 0 1 72.306641 132.42383 A 41.519841 84.321164 0 0 1 72.806641 124.05664 A 41.519841 84.321164 0 0 1 73.716797 115.83203 A 41.519841 84.321164 0 0 1 75.025391 107.83203 A 41.519841 84.321164 0 0 1 76.720703 100.14062 A 41.519841 84.321164 0 0 1 78.785156 92.830078 A 41.519841 84.321164 0 0 1 81.199219 85.972656 A 41.519841 84.321164 0 0 1 83.130859 81.507812 A 67.405671 69.199736 0 0 0 70.408203 80.210938 A 67.405671 69.199736 0 0 0 3.0039062 149.41016 A 67.405671 69.199736 0 0 0 27.234375 202.53125 C 27.124596 203.26254 27.050781 204.0067 27.050781 204.76953 L 27.050781 215.02148 C 27.050781 223.25676 33.680735 229.88477 41.916016 229.88477 L 217.73438 229.88477 C 225.96966 229.88477 232.59961 223.25676 232.59961 215.02148 L 232.59961 204.76953 C 232.59961 204.14132 232.54954 203.52527 232.47461 202.91797 A 67.405671 69.199735 0 0 0 257.20312 149.41016 A 67.405671 69.199735 0 0 0 189.79688 80.210938 A 67.405671 69.199735 0 0 0 177.07617 81.507812 A 41.519841 84.321165 0 0 1 179.00781 85.972656 A 41.519841 84.321165 0 0 1 181.42188 92.830078 A 41.519841 84.321165 0 0 1 183.48633 100.14062 A 41.519841 84.321165 0 0 1 185.18164 107.83203 A 41.519841 84.321165 0 0 1 186.49023 115.83203 A 41.519841 84.321165 0 0 1 187.39844 124.05664 A 41.519841 84.321165 0 0 1 187.90039 132.42383 A 41.519841 84.321165 0 0 1 188.00391 138.38672 A 41.519841 84.321165 0 0 1 187.79688 146.80664 A 41.519841 84.321165 0 0 1 187.17578 155.13867 A 41.519841 84.321165 0 0 1 186.15039 163.30664 A 41.519841 84.321165 0 0 1 184.72656 171.22461 A 41.519841 84.321165 0 0 1 182.92188 178.81445 A 41.519841 84.321165 0 0 1 180.75 185.99805 A 41.519841 84.321165 0 0 1 179.28711 189.9043 L 156 189.9043 A 40.750954 72.018983 0 0 0 170.57617 134.80078 A 40.750954 72.018983 0 0 0 129.82422 62.78125 z M 41.916016 247.9707 C 33.680735 247.9707 27.050781 254.60066 27.050781 262.83594 L 27.050781 273.08594 C 27.050781 281.32122 33.680735 287.95117 41.916016 287.95117 L 217.73438 287.95117 C 225.96966 287.95117 232.59961 281.32122 232.59961 273.08594 L 232.59961 262.83594 C 232.59961 254.60066 225.96966 247.9707 217.73438 247.9707 L 41.916016 247.9707 z "
     transform="scale(0.75000004)"
     id="path4537" />
</svg>
